<svg xmlns="http://www.w3.org/2000/svg" viewBox="0 0 820 500" width="820" height="500" role="img" aria-label="Inference speed vs accuracy">
<style>
      text { font-family: ui-sans-serif, system-ui, sans-serif; fill: #172033 }
      .axis { font-size: 12px; fill: #526070 }
      .label { font-size: 13px }
      .grid { stroke: #d9e0e8; stroke-width: 1 }
    </style>
<title>Inference speed vs accuracy</title>
<text class="axis" x="435.0" y="482" text-anchor="middle">mean p50 inference latency (ms; lower is faster)</text>
<text class="axis" transform="translate(20 240.0) rotate(-90)" text-anchor="middle">mean accuracy (higher is better)</text>
<circle cx="85" cy="24" r="6" fill="#2878B5"/>
<text class="axis" x="96" y="28">WebGPU</text>
<circle cx="195" cy="24" r="6" fill="#E07A1F"/>
<text class="axis" x="206" y="28">WASM</text>
<circle cx="305" cy="24" r="6" fill="#26935C"/>
<text class="axis" x="316" y="28">Native</text>
<circle cx="415" cy="24" r="6" fill="#98A4B3"/>
<text class="axis" x="426" y="28">H100 reference</text>
<line class="grid" x1="85.0" y1="50" x2="85.0" y2="430"/>
<text class="axis" x="85.0" y="452" text-anchor="middle">0</text>
<line class="grid" x1="85" y1="430.0" x2="785" y2="430.0"/>
<text class="axis" x="75" y="434.0" text-anchor="end">0.932</text>
<line class="grid" x1="225.0" y1="50" x2="225.0" y2="430"/>
<text class="axis" x="225.0" y="452" text-anchor="middle">271</text>
<line class="grid" x1="85" y1="354.0" x2="785" y2="354.0"/>
<text class="axis" x="75" y="358.0" text-anchor="end">0.945</text>
<line class="grid" x1="365.0" y1="50" x2="365.0" y2="430"/>
<text class="axis" x="365.0" y="452" text-anchor="middle">542</text>
<line class="grid" x1="85" y1="278.0" x2="785" y2="278.0"/>
<text class="axis" x="75" y="282.0" text-anchor="end">0.959</text>
<line class="grid" x1="505.0" y1="50" x2="505.0" y2="430"/>
<text class="axis" x="505.0" y="452" text-anchor="middle">813</text>
<line class="grid" x1="85" y1="202.0" x2="785" y2="202.0"/>
<text class="axis" x="75" y="206.0" text-anchor="end">0.973</text>
<line class="grid" x1="645.0" y1="50" x2="645.0" y2="430"/>
<text class="axis" x="645.0" y="452" text-anchor="middle">1084</text>
<line class="grid" x1="85" y1="126.0" x2="785" y2="126.0"/>
<text class="axis" x="75" y="130.0" text-anchor="end">0.986</text>
<line class="grid" x1="785.0" y1="50" x2="785.0" y2="430"/>
<text class="axis" x="785.0" y="452" text-anchor="middle">1355</text>
<line class="grid" x1="85" y1="50.0" x2="785" y2="50.0"/>
<text class="axis" x="75" y="54.0" text-anchor="end">1.000</text>
<polyline fill="none" stroke="#D98F8F" stroke-width="3" stroke-dasharray="7 5" points="161.3,354.0 195.1,339.5 292.0,310.6"/>
<circle cx="95.2" cy="281.6" r="8" fill="#98A4B3" stroke="#fff" stroke-width="3"><title>native data-h100-gpu1: p50 19.81 ms, accuracy 0.9583; reference excluded from frontier</title></circle>
<text class="label" x="107.2" y="269.6" text-anchor="start">H100 reference</text>
<circle cx="161.3" cy="354.0" r="8" fill="#2878B5" stroke="#D98F8F" stroke-width="3"><title>browser webgpu/int4: p50 147.65 ms, accuracy 0.9453</title></circle>
<text class="label" x="173.3" y="378.0" text-anchor="start">browser webgpu/int4</text>
<circle cx="195.1" cy="339.5" r="8" fill="#2878B5" stroke="#D98F8F" stroke-width="3"><title>browser webgpu/fp32: p50 213.25 ms, accuracy 0.9479</title></circle>
<text class="label" x="183.1" y="327.5" text-anchor="end">browser webgpu/fp32</text>
<circle cx="292.0" cy="310.6" r="8" fill="#26935C" stroke="#D98F8F" stroke-width="3"><title>native laptop-cpu: p50 400.79 ms, accuracy 0.9531</title></circle>
<text class="label" x="304.0" y="298.6" text-anchor="start">native laptop-cpu</text>
<circle cx="565.8" cy="339.5" r="8" fill="#E07A1F" stroke="#fff" stroke-width="3"><title>browser wasm/int8: p50 930.92 ms, accuracy 0.9479</title></circle>
<text class="label" x="577.8" y="327.5" text-anchor="start">browser wasm/int8</text>
<circle cx="648.8" cy="354.0" r="8" fill="#2878B5" stroke="#fff" stroke-width="3"><title>browser webgpu/int8: p50 1091.71 ms, accuracy 0.9453</title></circle>
<text class="label" x="660.8" y="378.0" text-anchor="start">browser webgpu/int8</text>
<circle cx="702.9" cy="339.5" r="8" fill="#E07A1F" stroke="#fff" stroke-width="3"><title>browser wasm/fp32: p50 1196.42 ms, accuracy 0.9479</title></circle>
<text class="label" x="690.9" y="307.5" text-anchor="end">browser wasm/fp32</text>
<circle cx="721.4" cy="354.0" r="8" fill="#E07A1F" stroke="#fff" stroke-width="3"><title>browser wasm/int4: p50 1232.23 ms, accuracy 0.9453</title></circle>
<text class="label" x="709.4" y="398.0" text-anchor="end">browser wasm/int4</text>
</svg>
